<svg xmlns="http://www.w3.org/2000/svg" xmlns:xlink="http://www.w3.org/1999/xlink" width="1473" zoomAndPan="magnify" viewBox="0 0 1104.75 594.749999" height="793" preserveAspectRatio="xMidYMid meet" version="1.0"><defs><g/><clipPath id="0bb8de344b"><path d="M 0.105469 107 L 213 107 L 213 350 L 0.105469 350 Z M 0.105469 107 " clip-rule="nonzero"/></clipPath><clipPath id="a4194bdfbf"><path d="M 186 326 L 416 326 L 416 594.5 L 186 594.5 Z M 186 326 " clip-rule="nonzero"/></clipPath><clipPath id="914f723a5f"><path d="M 178 318 L 408 318 L 408 594.5 L 178 594.5 Z M 178 318 " clip-rule="nonzero"/></clipPath></defs><g fill="#16896d" fill-opacity="0.7686"><g transform="translate(38.355786, 356.362046)"><g><path d="M 138.871094 -101.414062 C 132.265625 -67.011719 100.550781 -46.660156 70.796875 -42.296875 C 47.984375 -38.949219 33.804688 -49.28125 31.332031 -66.140625 C 28.097656 -88.210938 39.667969 -102.570312 63.964844 -106.132812 C 73.125 -102.410156 80.640625 -101.234375 86.839844 -102.144531 C 101.71875 -104.324219 108.117188 -117.675781 106.410156 -129.328125 C 104.917969 -139.492188 97.265625 -148.503906 83.308594 -146.960938 C 68.429688 -144.78125 59.253906 -153.820312 57.542969 -165.472656 C 55.179688 -181.589844 62.574219 -195.085938 78.9375 -197.484375 C 86.625 -198.613281 94.863281 -194.25 97.472656 -188.550781 C 102.761719 -176.664062 110.539062 -171.980469 119.21875 -173.25 C 127.894531 -174.523438 135.453125 -181.710938 134.597656 -192.730469 C 132.230469 -219.230469 105.804688 -235.363281 74.808594 -230.820312 C 39.351562 -225.621094 12.753906 -192.84375 17.769531 -158.628906 C 19.296875 -148.214844 24.113281 -139.546875 31.402344 -133.019531 C -4.523438 -120.660156 -12.894531 -84.476562 -9.039062 -58.195312 C -4.132812 -24.722656 29.257812 -4.289062 74.632812 -10.945312 C 121 -17.742188 162.234375 -50.890625 169.707031 -100.113281 C 170.160156 -102.203125 170.117188 -104.222656 169.863281 -105.960938 C 168.589844 -114.636719 160.957031 -118.332031 153.519531 -117.242188 C 146.578125 -116.222656 140.003906 -110.953125 138.871094 -101.414062 Z M 138.871094 -101.414062 "/></g></g></g><g fill="#16896d" fill-opacity="0.7686"><g transform="translate(177.68579, 335.930115)"><g><path d="M 28.042969 -45.398438 L 58.003906 -203.785156 C 58.558594 -206.90625 58.621094 -209.957031 58.257812 -212.433594 C 56.875 -221.855469 47.039062 -226.746094 39.601562 -225.65625 C 30.179688 -224.273438 24.742188 -218.160156 22.414062 -206.417969 L -7.5625 -51.574219 C -8.710938 -45.578125 -8.9375 -40.226562 -8.175781 -35.019531 C -4.828125 -12.210938 15.867188 -2.328125 37.6875 -5.527344 C 61.242188 -8.980469 88.605469 -27.9375 98.398438 -82.054688 C 98.640625 -83.863281 98.632812 -85.636719 98.414062 -87.125 C 97.25 -95.058594 89.472656 -99.742188 81.785156 -98.617188 C 75.585938 -97.707031 69.4375 -93.007812 67.3125 -83.324219 C 60.515625 -51.933594 47.992188 -37.179688 36.335938 -35.46875 C 31.378906 -34.742188 28.214844 -37.316406 27.667969 -41.035156 C 27.523438 -42.027344 27.765625 -43.835938 28.042969 -45.398438 Z M 28.042969 -45.398438 "/></g></g></g><g fill="#16896d" fill-opacity="0.7686"><g transform="translate(246.854952, 325.786862)"><g/></g></g><g fill="#16896d" fill-opacity="0.7686"><g transform="translate(341.5597, 311.898964)"><g><path d="M 115.359375 -228.914062 L 51.390625 -219.535156 C 39.277344 -217.503906 33.753906 -206.816406 35.097656 -197.640625 C 36.296875 -189.460938 42.878906 -182.574219 55.523438 -184.425781 L 81.558594 -188.246094 L 59.253906 -67.449219 C 55.394531 -47.128906 46.386719 -39.476562 34.734375 -37.765625 C 30.023438 -37.074219 25.789062 -41.773438 25.460938 -44.003906 C 25.5625 -45.035156 25.382812 -46.273438 25.234375 -47.265625 C 23.816406 -56.933594 13.769531 -61.539062 4.597656 -60.195312 C -4.578125 -58.851562 -13.128906 -51.519531 -11.019531 -37.136719 C -7.671875 -14.324219 16.304688 0.648438 43.578125 -3.351562 C 64.40625 -6.40625 90.46875 -22.132812 98.046875 -61.996094 L 128.316406 -223.46875 C 129.046875 -227.121094 126.269531 -230.515625 122.304688 -229.933594 Z M 115.359375 -228.914062 "/></g></g></g><g fill="#16896d" fill-opacity="0.7686"><g transform="translate(469.237559, 293.175753)"><g><path d="M 143.175781 -106.605469 C 136.230469 -105.585938 129.164062 -100.246094 127.570312 -90.386719 C 122.371094 -58.46875 108.242188 -46.015625 97.085938 -44.378906 C 92.871094 -43.757812 90.0625 -45.628906 89.480469 -49.59375 C 89.191406 -51.578125 89.324219 -54.128906 89.667969 -56.96875 L 105.65625 -141.375 C 106.210938 -144.496094 106.308594 -147.296875 105.945312 -149.777344 C 104.34375 -160.683594 94.582031 -165.078125 85.40625 -163.734375 C 78.464844 -162.714844 71.746094 -158.4375 68.6875 -151.65625 C 63.007812 -154.117188 52.792969 -156.417969 40.148438 -154.5625 C 23.785156 -152.164062 7.238281 -140.621094 3.34375 -120.546875 L -10.179688 -50.429688 C -11.015625 -45.75 -11.351562 -41.140625 -10.699219 -36.675781 C -7.679688 -16.097656 11.40625 -1.671875 33.226562 -4.871094 C 44.878906 -6.582031 56.015625 -13.535156 63.992188 -23.0625 C 73.597656 -12.820312 91.492188 -13.417969 98.933594 -14.507812 C 119.511719 -17.527344 145.507812 -31.976562 155.484375 -74.46875 C 157.539062 -84.648438 159.359375 -91.25 158.703125 -95.710938 C 157.464844 -104.140625 150.367188 -107.660156 143.175781 -106.605469 Z M 60.988281 -97.085938 L 54.503906 -58.394531 C 51.660156 -41.515625 42.785156 -36.414062 37.578125 -35.652344 C 32.121094 -34.851562 28.886719 -37.921875 28.050781 -43.625 C 27.578125 -46.847656 27.882812 -49.933594 28.300781 -52.273438 L 36.859375 -104.4375 C 39.355469 -120.253906 46.003906 -123.257812 49.972656 -123.839844 C 54.683594 -124.527344 60.582031 -120.582031 61.816406 -112.152344 C 62.363281 -108.433594 62.0625 -103.574219 60.988281 -97.085938 Z M 60.988281 -97.085938 "/></g></g></g><g fill="#16896d" fill-opacity="0.7686"><g transform="translate(599.394627, 274.08898)"><g><path d="M 145.480469 -106.4375 C 138.785156 -105.453125 132.351562 -100.964844 131.28125 -92.703125 C 124.488281 -61.3125 112.953125 -46.703125 101.796875 -45.070312 C 96.835938 -44.339844 93.601562 -47.414062 93.019531 -51.378906 C 92.800781 -52.867188 92.832031 -54.390625 93.386719 -57.511719 L 122.550781 -210.972656 C 123.105469 -214.09375 123.726562 -218.492188 123.328125 -221.21875 C 121.765625 -231.878906 112.25 -236.308594 103.570312 -235.039062 C 95.886719 -233.910156 89.53125 -227.152344 86.957031 -213.605469 L 73.777344 -146.324219 C 65.136719 -153.417969 53.539062 -156.527344 41.882812 -154.820312 C 25.765625 -152.457031 9.71875 -140.984375 5.789062 -121.15625 L -7.949219 -50.757812 C -8.996094 -45.792969 -9.011719 -40.722656 -8.355469 -36.261719 C -5.15625 -14.441406 14.628906 -2.144531 35.953125 -5.273438 C 47.605469 -6.980469 59.917969 -12.839844 68.417969 -23.964844 C 77.339844 -16.660156 90.007812 -13.199219 102.402344 -15.015625 C 126.949219 -18.617188 152.636719 -40.367188 162.121094 -91.402344 C 162.363281 -93.207031 162.605469 -95.015625 162.386719 -96.503906 C 161.257812 -104.191406 153.164062 -107.5625 145.480469 -106.4375 Z M 35.808594 -44.257812 C 30.914062 -44.804688 29.128906 -48.34375 28.546875 -52.308594 C 28.074219 -55.535156 28.382812 -58.617188 28.800781 -60.957031 L 36.859375 -104.4375 C 39.675781 -119.796875 46.003906 -123.257812 49.972656 -123.839844 C 54.683594 -124.527344 60.582031 -120.582031 61.816406 -112.152344 C 62.363281 -108.433594 62.308594 -103.613281 60.988281 -97.085938 L 55.003906 -67.082031 C 50.253906 -47.640625 40.664062 -43.957031 35.808594 -44.257812 Z M 35.808594 -44.257812 "/></g></g></g><g fill="#16896d" fill-opacity="0.7686"><g transform="translate(732.526657, 254.565946)"><g><path d="M 42.011719 -178.140625 C 53.167969 -179.777344 60.996094 -190.296875 59.324219 -201.699219 C 57.6875 -212.859375 47.203125 -220.4375 36.046875 -218.804688 C 24.890625 -217.167969 17.023438 -206.894531 18.660156 -195.738281 C 20.332031 -184.332031 30.851562 -176.503906 42.011719 -178.140625 Z M 27.082031 -46.777344 L 42.9375 -128.632812 C 43.457031 -132 44.1875 -135.652344 43.824219 -138.132812 C 42.222656 -149.042969 33.207031 -153.546875 24.773438 -152.308594 C 17.089844 -151.183594 9.707031 -144.527344 7.449219 -132.292969 C 2.929688 -107.820312 -3.15625 -76.789062 -7.707031 -52.566406 C -8.46875 -47.386719 -9.472656 -40.402344 -8.851562 -36.1875 C -5.433594 -12.878906 15.867188 -2.328125 38.679688 -5.671875 C 62.980469 -9.234375 87.578125 -28.039062 97.40625 -81.910156 C 97.683594 -83.472656 97.714844 -84.996094 97.496094 -86.484375 C 96.367188 -94.167969 88.238281 -97.789062 80.800781 -96.699219 C 74.105469 -95.714844 67.921875 -91.265625 66.070312 -83.140625 C 59.144531 -49.199219 47.496094 -37.105469 37.578125 -35.652344 C 31.875 -34.816406 27.609375 -37.988281 26.917969 -42.699219 C 26.738281 -43.9375 26.800781 -45.214844 27.082031 -46.777344 Z M 27.082031 -46.777344 "/></g></g></g><g fill="#16896d" fill-opacity="0.7686"><g transform="translate(800.952055, 244.531761)"><g><path d="M 145.480469 -106.4375 C 138.785156 -105.453125 132.351562 -100.964844 131.28125 -92.703125 C 124.488281 -61.3125 112.953125 -46.703125 101.796875 -45.070312 C 96.835938 -44.339844 93.601562 -47.414062 93.019531 -51.378906 C 92.800781 -52.867188 92.832031 -54.390625 93.386719 -57.511719 L 122.550781 -210.972656 C 123.105469 -214.09375 123.726562 -218.492188 123.328125 -221.21875 C 121.765625 -231.878906 112.25 -236.308594 103.570312 -235.039062 C 95.886719 -233.910156 89.53125 -227.152344 86.957031 -213.605469 L 73.777344 -146.324219 C 65.136719 -153.417969 53.539062 -156.527344 41.882812 -154.820312 C 25.765625 -152.457031 9.71875 -140.984375 5.789062 -121.15625 L -7.949219 -50.757812 C -8.996094 -45.792969 -9.011719 -40.722656 -8.355469 -36.261719 C -5.15625 -14.441406 14.628906 -2.144531 35.953125 -5.273438 C 47.605469 -6.980469 59.917969 -12.839844 68.417969 -23.964844 C 77.339844 -16.660156 90.007812 -13.199219 102.402344 -15.015625 C 126.949219 -18.617188 152.636719 -40.367188 162.121094 -91.402344 C 162.363281 -93.207031 162.605469 -95.015625 162.386719 -96.503906 C 161.257812 -104.191406 153.164062 -107.5625 145.480469 -106.4375 Z M 35.808594 -44.257812 C 30.914062 -44.804688 29.128906 -48.34375 28.546875 -52.308594 C 28.074219 -55.535156 28.382812 -58.617188 28.800781 -60.957031 L 36.859375 -104.4375 C 39.675781 -119.796875 46.003906 -123.257812 49.972656 -123.839844 C 54.683594 -124.527344 60.582031 -120.582031 61.816406 -112.152344 C 62.363281 -108.433594 62.308594 -103.613281 60.988281 -97.085938 L 55.003906 -67.082031 C 50.253906 -47.640625 40.664062 -43.957031 35.808594 -44.257812 Z M 35.808594 -44.257812 "/></g></g></g><g fill="#16896d" fill-opacity="0.7686"><g transform="translate(934.084086, 225.008727)"><g><path d="M 143.175781 -106.605469 C 136.230469 -105.585938 129.164062 -100.246094 127.570312 -90.386719 C 122.371094 -58.46875 108.242188 -46.015625 97.085938 -44.378906 C 92.871094 -43.757812 90.0625 -45.628906 89.480469 -49.59375 C 89.191406 -51.578125 89.324219 -54.128906 89.667969 -56.96875 L 105.65625 -141.375 C 106.210938 -144.496094 106.308594 -147.296875 105.945312 -149.777344 C 104.34375 -160.683594 94.582031 -165.078125 85.40625 -163.734375 C 78.464844 -162.714844 71.746094 -158.4375 68.6875 -151.65625 C 63.007812 -154.117188 52.792969 -156.417969 40.148438 -154.5625 C 23.785156 -152.164062 7.238281 -140.621094 3.34375 -120.546875 L -10.179688 -50.429688 C -11.015625 -45.75 -11.351562 -41.140625 -10.699219 -36.675781 C -7.679688 -16.097656 11.40625 -1.671875 33.226562 -4.871094 C 44.878906 -6.582031 56.015625 -13.535156 63.992188 -23.0625 C 73.597656 -12.820312 91.492188 -13.417969 98.933594 -14.507812 C 119.511719 -17.527344 145.507812 -31.976562 155.484375 -74.46875 C 157.539062 -84.648438 159.359375 -91.25 158.703125 -95.710938 C 157.464844 -104.140625 150.367188 -107.660156 143.175781 -106.605469 Z M 60.988281 -97.085938 L 54.503906 -58.394531 C 51.660156 -41.515625 42.785156 -36.414062 37.578125 -35.652344 C 32.121094 -34.851562 28.886719 -37.921875 28.050781 -43.625 C 27.578125 -46.847656 27.882812 -49.933594 28.300781 -52.273438 L 36.859375 -104.4375 C 39.355469 -120.253906 46.003906 -123.257812 49.972656 -123.839844 C 54.683594 -124.527344 60.582031 -120.582031 61.816406 -112.152344 C 62.363281 -108.433594 62.0625 -103.574219 60.988281 -97.085938 Z M 60.988281 -97.085938 "/></g></g></g><g clip-path="url(#0bb8de344b)"><g fill="#ffde59" fill-opacity="1"><g transform="translate(31.330184, 349.658239)"><g><path d="M 138.871094 -101.414062 C 132.265625 -67.011719 100.550781 -46.660156 70.796875 -42.296875 C 47.984375 -38.949219 33.804688 -49.28125 31.332031 -66.140625 C 28.097656 -88.210938 39.667969 -102.570312 63.964844 -106.132812 C 73.125 -102.410156 80.640625 -101.234375 86.839844 -102.144531 C 101.71875 -104.324219 108.117188 -117.675781 106.410156 -129.328125 C 104.917969 -139.492188 97.265625 -148.503906 83.308594 -146.960938 C 68.429688 -144.78125 59.253906 -153.820312 57.542969 -165.472656 C 55.179688 -181.589844 62.574219 -195.085938 78.9375 -197.484375 C 86.625 -198.613281 94.863281 -194.25 97.472656 -188.550781 C 102.761719 -176.664062 110.539062 -171.980469 119.21875 -173.25 C 127.894531 -174.523438 135.453125 -181.710938 134.597656 -192.730469 C 132.230469 -219.230469 105.804688 -235.363281 74.808594 -230.820312 C 39.351562 -225.621094 12.753906 -192.84375 17.769531 -158.628906 C 19.296875 -148.214844 24.113281 -139.546875 31.402344 -133.019531 C -4.523438 -120.660156 -12.894531 -84.476562 -9.039062 -58.195312 C -4.132812 -24.722656 29.257812 -4.289062 74.632812 -10.945312 C 121 -17.742188 162.234375 -50.890625 169.707031 -100.113281 C 170.160156 -102.203125 170.117188 -104.222656 169.863281 -105.960938 C 168.589844 -114.636719 160.957031 -118.332031 153.519531 -117.242188 C 146.578125 -116.222656 140.003906 -110.953125 138.871094 -101.414062 Z M 138.871094 -101.414062 "/></g></g></g></g><g fill="#ffde59" fill-opacity="1"><g transform="translate(170.660187, 329.226309)"><g><path d="M 28.042969 -45.398438 L 58.003906 -203.785156 C 58.558594 -206.90625 58.621094 -209.957031 58.257812 -212.433594 C 56.875 -221.855469 47.039062 -226.746094 39.601562 -225.65625 C 30.179688 -224.273438 24.742188 -218.160156 22.414062 -206.417969 L -7.5625 -51.574219 C -8.710938 -45.578125 -8.9375 -40.226562 -8.175781 -35.019531 C -4.828125 -12.210938 15.867188 -2.328125 37.6875 -5.527344 C 61.242188 -8.980469 88.605469 -27.9375 98.398438 -82.054688 C 98.640625 -83.863281 98.632812 -85.636719 98.414062 -87.125 C 97.25 -95.058594 89.472656 -99.742188 81.785156 -98.617188 C 75.585938 -97.707031 69.4375 -93.007812 67.3125 -83.324219 C 60.515625 -51.933594 47.992188 -37.179688 36.335938 -35.46875 C 31.378906 -34.742188 28.214844 -37.316406 27.667969 -41.035156 C 27.523438 -42.027344 27.765625 -43.835938 28.042969 -45.398438 Z M 28.042969 -45.398438 "/></g></g></g><g fill="#ffde59" fill-opacity="1"><g transform="translate(239.82935, 319.083055)"><g/></g></g><g fill="#ffde59" fill-opacity="1"><g transform="translate(334.534098, 305.195158)"><g><path d="M 115.359375 -228.914062 L 51.390625 -219.535156 C 39.277344 -217.503906 33.753906 -206.816406 35.097656 -197.640625 C 36.296875 -189.460938 42.878906 -182.574219 55.523438 -184.425781 L 81.558594 -188.246094 L 59.253906 -67.449219 C 55.394531 -47.128906 46.386719 -39.476562 34.734375 -37.765625 C 30.023438 -37.074219 25.789062 -41.773438 25.460938 -44.003906 C 25.5625 -45.035156 25.382812 -46.273438 25.234375 -47.265625 C 23.816406 -56.933594 13.769531 -61.539062 4.597656 -60.195312 C -4.578125 -58.851562 -13.128906 -51.519531 -11.019531 -37.136719 C -7.671875 -14.324219 16.304688 0.648438 43.578125 -3.351562 C 64.40625 -6.40625 90.46875 -22.132812 98.046875 -61.996094 L 128.316406 -223.46875 C 129.046875 -227.121094 126.269531 -230.515625 122.304688 -229.933594 Z M 115.359375 -228.914062 "/></g></g></g><g fill="#ffde59" fill-opacity="1"><g transform="translate(462.211957, 286.471946)"><g><path d="M 143.175781 -106.605469 C 136.230469 -105.585938 129.164062 -100.246094 127.570312 -90.386719 C 122.371094 -58.46875 108.242188 -46.015625 97.085938 -44.378906 C 92.871094 -43.757812 90.0625 -45.628906 89.480469 -49.59375 C 89.191406 -51.578125 89.324219 -54.128906 89.667969 -56.96875 L 105.65625 -141.375 C 106.210938 -144.496094 106.308594 -147.296875 105.945312 -149.777344 C 104.34375 -160.683594 94.582031 -165.078125 85.40625 -163.734375 C 78.464844 -162.714844 71.746094 -158.4375 68.6875 -151.65625 C 63.007812 -154.117188 52.792969 -156.417969 40.148438 -154.5625 C 23.785156 -152.164062 7.238281 -140.621094 3.34375 -120.546875 L -10.179688 -50.429688 C -11.015625 -45.75 -11.351562 -41.140625 -10.699219 -36.675781 C -7.679688 -16.097656 11.40625 -1.671875 33.226562 -4.871094 C 44.878906 -6.582031 56.015625 -13.535156 63.992188 -23.0625 C 73.597656 -12.820312 91.492188 -13.417969 98.933594 -14.507812 C 119.511719 -17.527344 145.507812 -31.976562 155.484375 -74.46875 C 157.539062 -84.648438 159.359375 -91.25 158.703125 -95.710938 C 157.464844 -104.140625 150.367188 -107.660156 143.175781 -106.605469 Z M 60.988281 -97.085938 L 54.503906 -58.394531 C 51.660156 -41.515625 42.785156 -36.414062 37.578125 -35.652344 C 32.121094 -34.851562 28.886719 -37.921875 28.050781 -43.625 C 27.578125 -46.847656 27.882812 -49.933594 28.300781 -52.273438 L 36.859375 -104.4375 C 39.355469 -120.253906 46.003906 -123.257812 49.972656 -123.839844 C 54.683594 -124.527344 60.582031 -120.582031 61.816406 -112.152344 C 62.363281 -108.433594 62.0625 -103.574219 60.988281 -97.085938 Z M 60.988281 -97.085938 "/></g></g></g><g fill="#ffde59" fill-opacity="1"><g transform="translate(592.369024, 267.385173)"><g><path d="M 145.480469 -106.4375 C 138.785156 -105.453125 132.351562 -100.964844 131.28125 -92.703125 C 124.488281 -61.3125 112.953125 -46.703125 101.796875 -45.070312 C 96.835938 -44.339844 93.601562 -47.414062 93.019531 -51.378906 C 92.800781 -52.867188 92.832031 -54.390625 93.386719 -57.511719 L 122.550781 -210.972656 C 123.105469 -214.09375 123.726562 -218.492188 123.328125 -221.21875 C 121.765625 -231.878906 112.25 -236.308594 103.570312 -235.039062 C 95.886719 -233.910156 89.53125 -227.152344 86.957031 -213.605469 L 73.777344 -146.324219 C 65.136719 -153.417969 53.539062 -156.527344 41.882812 -154.820312 C 25.765625 -152.457031 9.71875 -140.984375 5.789062 -121.15625 L -7.949219 -50.757812 C -8.996094 -45.792969 -9.011719 -40.722656 -8.355469 -36.261719 C -5.15625 -14.441406 14.628906 -2.144531 35.953125 -5.273438 C 47.605469 -6.980469 59.917969 -12.839844 68.417969 -23.964844 C 77.339844 -16.660156 90.007812 -13.199219 102.402344 -15.015625 C 126.949219 -18.617188 152.636719 -40.367188 162.121094 -91.402344 C 162.363281 -93.207031 162.605469 -95.015625 162.386719 -96.503906 C 161.257812 -104.191406 153.164062 -107.5625 145.480469 -106.4375 Z M 35.808594 -44.257812 C 30.914062 -44.804688 29.128906 -48.34375 28.546875 -52.308594 C 28.074219 -55.535156 28.382812 -58.617188 28.800781 -60.957031 L 36.859375 -104.4375 C 39.675781 -119.796875 46.003906 -123.257812 49.972656 -123.839844 C 54.683594 -124.527344 60.582031 -120.582031 61.816406 -112.152344 C 62.363281 -108.433594 62.308594 -103.613281 60.988281 -97.085938 L 55.003906 -67.082031 C 50.253906 -47.640625 40.664062 -43.957031 35.808594 -44.257812 Z M 35.808594 -44.257812 "/></g></g></g><g fill="#ffde59" fill-opacity="1"><g transform="translate(725.501055, 247.862139)"><g><path d="M 42.011719 -178.140625 C 53.167969 -179.777344 60.996094 -190.296875 59.324219 -201.699219 C 57.6875 -212.859375 47.203125 -220.4375 36.046875 -218.804688 C 24.890625 -217.167969 17.023438 -206.894531 18.660156 -195.738281 C 20.332031 -184.332031 30.851562 -176.503906 42.011719 -178.140625 Z M 27.082031 -46.777344 L 42.9375 -128.632812 C 43.457031 -132 44.1875 -135.652344 43.824219 -138.132812 C 42.222656 -149.042969 33.207031 -153.546875 24.773438 -152.308594 C 17.089844 -151.183594 9.707031 -144.527344 7.449219 -132.292969 C 2.929688 -107.820312 -3.15625 -76.789062 -7.707031 -52.566406 C -8.46875 -47.386719 -9.472656 -40.402344 -8.851562 -36.1875 C -5.433594 -12.878906 15.867188 -2.328125 38.679688 -5.671875 C 62.980469 -9.234375 87.578125 -28.039062 97.40625 -81.910156 C 97.683594 -83.472656 97.714844 -84.996094 97.496094 -86.484375 C 96.367188 -94.167969 88.238281 -97.789062 80.800781 -96.699219 C 74.105469 -95.714844 67.921875 -91.265625 66.070312 -83.140625 C 59.144531 -49.199219 47.496094 -37.105469 37.578125 -35.652344 C 31.875 -34.816406 27.609375 -37.988281 26.917969 -42.699219 C 26.738281 -43.9375 26.800781 -45.214844 27.082031 -46.777344 Z M 27.082031 -46.777344 "/></g></g></g><g fill="#ffde59" fill-opacity="1"><g transform="translate(793.926453, 237.827954)"><g><path d="M 145.480469 -106.4375 C 138.785156 -105.453125 132.351562 -100.964844 131.28125 -92.703125 C 124.488281 -61.3125 112.953125 -46.703125 101.796875 -45.070312 C 96.835938 -44.339844 93.601562 -47.414062 93.019531 -51.378906 C 92.800781 -52.867188 92.832031 -54.390625 93.386719 -57.511719 L 122.550781 -210.972656 C 123.105469 -214.09375 123.726562 -218.492188 123.328125 -221.21875 C 121.765625 -231.878906 112.25 -236.308594 103.570312 -235.039062 C 95.886719 -233.910156 89.53125 -227.152344 86.957031 -213.605469 L 73.777344 -146.324219 C 65.136719 -153.417969 53.539062 -156.527344 41.882812 -154.820312 C 25.765625 -152.457031 9.71875 -140.984375 5.789062 -121.15625 L -7.949219 -50.757812 C -8.996094 -45.792969 -9.011719 -40.722656 -8.355469 -36.261719 C -5.15625 -14.441406 14.628906 -2.144531 35.953125 -5.273438 C 47.605469 -6.980469 59.917969 -12.839844 68.417969 -23.964844 C 77.339844 -16.660156 90.007812 -13.199219 102.402344 -15.015625 C 126.949219 -18.617188 152.636719 -40.367188 162.121094 -91.402344 C 162.363281 -93.207031 162.605469 -95.015625 162.386719 -96.503906 C 161.257812 -104.191406 153.164062 -107.5625 145.480469 -106.4375 Z M 35.808594 -44.257812 C 30.914062 -44.804688 29.128906 -48.34375 28.546875 -52.308594 C 28.074219 -55.535156 28.382812 -58.617188 28.800781 -60.957031 L 36.859375 -104.4375 C 39.675781 -119.796875 46.003906 -123.257812 49.972656 -123.839844 C 54.683594 -124.527344 60.582031 -120.582031 61.816406 -112.152344 C 62.363281 -108.433594 62.308594 -103.613281 60.988281 -97.085938 L 55.003906 -67.082031 C 50.253906 -47.640625 40.664062 -43.957031 35.808594 -44.257812 Z M 35.808594 -44.257812 "/></g></g></g><g fill="#ffde59" fill-opacity="1"><g transform="translate(927.058483, 218.304921)"><g><path d="M 143.175781 -106.605469 C 136.230469 -105.585938 129.164062 -100.246094 127.570312 -90.386719 C 122.371094 -58.46875 108.242188 -46.015625 97.085938 -44.378906 C 92.871094 -43.757812 90.0625 -45.628906 89.480469 -49.59375 C 89.191406 -51.578125 89.324219 -54.128906 89.667969 -56.96875 L 105.65625 -141.375 C 106.210938 -144.496094 106.308594 -147.296875 105.945312 -149.777344 C 104.34375 -160.683594 94.582031 -165.078125 85.40625 -163.734375 C 78.464844 -162.714844 71.746094 -158.4375 68.6875 -151.65625 C 63.007812 -154.117188 52.792969 -156.417969 40.148438 -154.5625 C 23.785156 -152.164062 7.238281 -140.621094 3.34375 -120.546875 L -10.179688 -50.429688 C -11.015625 -45.75 -11.351562 -41.140625 -10.699219 -36.675781 C -7.679688 -16.097656 11.40625 -1.671875 33.226562 -4.871094 C 44.878906 -6.582031 56.015625 -13.535156 63.992188 -23.0625 C 73.597656 -12.820312 91.492188 -13.417969 98.933594 -14.507812 C 119.511719 -17.527344 145.507812 -31.976562 155.484375 -74.46875 C 157.539062 -84.648438 159.359375 -91.25 158.703125 -95.710938 C 157.464844 -104.140625 150.367188 -107.660156 143.175781 -106.605469 Z M 60.988281 -97.085938 L 54.503906 -58.394531 C 51.660156 -41.515625 42.785156 -36.414062 37.578125 -35.652344 C 32.121094 -34.851562 28.886719 -37.921875 28.050781 -43.625 C 27.578125 -46.847656 27.882812 -49.933594 28.300781 -52.273438 L 36.859375 -104.4375 C 39.355469 -120.253906 46.003906 -123.257812 49.972656 -123.839844 C 54.683594 -124.527344 60.582031 -120.582031 61.816406 -112.152344 C 62.363281 -108.433594 62.0625 -103.574219 60.988281 -97.085938 Z M 60.988281 -97.085938 "/></g></g></g><g clip-path="url(#a4194bdfbf)"><g fill="#16896d" fill-opacity="0.7686"><g transform="translate(230.505002, 602.521636)"><g><path d="M 138.09375 -108.050781 C 129.964844 -69.6875 101.613281 -51.484375 78.691406 -48.121094 C 56.058594 -44.804688 31.738281 -54.992188 28.964844 -73.902344 C 28.335938 -78.199219 28.191406 -83.152344 29.199219 -88.277344 L 50.550781 -194.128906 C 54.652344 -214.046875 65.980469 -218.636719 72.855469 -219.644531 C 79.445312 -220.609375 84.617188 -217.269531 85.878906 -208.675781 C 86.464844 -204.664062 86.078125 -199.339844 84.625 -193.273438 C 84.058594 -191.140625 84.066406 -189.09375 84.359375 -187.089844 C 85.832031 -177.0625 96.789062 -170.183594 107.964844 -171.820312 C 117.992188 -173.292969 128.15625 -181.804688 130.539062 -201.472656 C 131.453125 -209.214844 131.304688 -216.214844 130.421875 -222.230469 C 125.800781 -253.746094 98.1875 -268.429688 65.527344 -263.636719 C 44.613281 -260.570312 13.496094 -247.230469 4.613281 -202.027344 L -16.199219 -94.496094 C -18.046875 -85.152344 -18.339844 -75.160156 -17.078125 -66.5625 C -11.574219 -29.03125 27.21875 -3.992188 77.070312 -11.300781 C 116.890625 -17.140625 163.472656 -44.75 173 -103.511719 C 173.238281 -105.886719 173.230469 -107.933594 172.980469 -109.652344 C 171.507812 -119.679688 161.785156 -124.109375 152.90625 -122.804688 C 145.457031 -121.714844 138.839844 -116.9375 138.09375 -108.050781 Z M 138.09375 -108.050781 "/></g></g></g></g><g fill="#16896d" fill-opacity="0.7686"><g transform="translate(370.601526, 581.9773)"><g><path d="M 165.433594 -123.179688 C 157.414062 -122.003906 149.246094 -115.832031 147.402344 -104.4375 C 141.398438 -67.5625 125.070312 -53.167969 112.179688 -51.277344 C 107.308594 -50.5625 104.066406 -52.722656 103.394531 -57.304688 C 103.058594 -59.597656 103.210938 -62.546875 103.605469 -65.824219 L 122.082031 -163.355469 C 122.722656 -166.960938 122.835938 -170.195312 122.414062 -173.0625 C 120.566406 -185.667969 109.285156 -190.746094 98.6875 -189.191406 C 90.664062 -188.015625 82.902344 -183.070312 79.367188 -175.234375 C 72.804688 -178.078125 61 -180.738281 46.390625 -178.59375 C 27.480469 -175.820312 8.367188 -162.484375 3.863281 -139.289062 L -11.765625 -58.269531 C -12.726562 -52.859375 -13.117188 -47.535156 -12.359375 -42.378906 C -8.875 -18.601562 13.179688 -1.933594 38.390625 -5.628906 C 51.855469 -7.605469 64.726562 -15.636719 73.941406 -26.648438 C 85.039062 -14.8125 105.71875 -15.503906 114.3125 -16.761719 C 138.09375 -20.25 168.128906 -36.945312 179.660156 -86.050781 C 182.03125 -97.808594 184.132812 -105.433594 183.378906 -110.59375 C 181.949219 -120.332031 173.742188 -124.398438 165.433594 -123.179688 Z M 70.46875 -112.179688 L 62.976562 -67.476562 C 59.691406 -47.96875 49.433594 -42.074219 43.417969 -41.195312 C 37.117188 -40.269531 33.375 -43.816406 32.410156 -50.40625 C 31.863281 -54.132812 32.21875 -57.695312 32.699219 -60.402344 L 42.589844 -120.675781 C 45.472656 -138.949219 53.160156 -142.417969 57.742188 -143.089844 C 63.1875 -143.890625 70 -139.328125 71.429688 -129.585938 C 72.058594 -125.289062 71.710938 -119.679688 70.46875 -112.179688 Z M 70.46875 -112.179688 "/></g></g></g><g fill="#16896d" fill-opacity="0.7686"><g transform="translate(521.01188, 559.920501)"><g><path d="M 133.070312 -104.386719 C 126.300781 -74.710938 114.757812 -51.65625 102.722656 -49.890625 C 98.714844 -49.300781 96.160156 -52.734375 95.574219 -56.742188 C 95.320312 -58.460938 95.273438 -60.796875 95.796875 -63.214844 L 105.808594 -112.679688 C 106.6875 -118.660156 107.078125 -123.988281 106.363281 -128.855469 C 102.371094 -156.074219 66.3125 -162.492188 49.550781 -165.011719 C 50.074219 -167.429688 49.984375 -170.050781 49.648438 -172.339844 C 47.714844 -185.519531 34.332031 -194.972656 21.4375 -193.082031 C 4.535156 -190.601562 -3.308594 -174.234375 -0.914062 -157.902344 C 0.136719 -150.742188 3.808594 -143.667969 9.230469 -138.613281 L -3.40625 -79.105469 C -3.640625 -76.726562 -3.59375 -74.394531 -3.339844 -72.675781 C -1.953125 -63.222656 6.207031 -59.441406 14.230469 -60.617188 C 22.253906 -61.796875 29.890625 -67.597656 31.984375 -77.269531 L 41.722656 -122.597656 C 50.125 -121.195312 61.019531 -120.746094 62.449219 -111.003906 C 62.65625 -109.570312 62.625 -107.808594 62.34375 -105.71875 L 54.863281 -68.917969 C 53.539062 -61.992188 53.273438 -55.808594 54.113281 -50.078125 C 57.769531 -25.152344 79.933594 -11.722656 103.714844 -15.207031 C 134.941406 -19.789062 159.230469 -51.738281 169.03125 -102.636719 C 169.355469 -104.4375 169.429688 -105.914062 169.21875 -107.34375 C 167.960938 -115.941406 157.664062 -120.285156 148.496094 -118.941406 C 141.046875 -117.847656 134.390625 -113.359375 133.070312 -104.386719 Z M 133.070312 -104.386719 "/></g></g></g><g fill="#16896d" fill-opacity="0.7686"><g transform="translate(656.524461, 540.048373)"><g><path d="M 90.433594 -95.792969 C 83.59375 -62.597656 67.769531 -44.765625 51.15625 -42.328125 C 40.839844 -40.816406 33.613281 -46.195312 32.480469 -53.929688 C 32.183594 -55.933594 32.421875 -58.3125 32.699219 -60.402344 L 49.054688 -144.453125 L 67.679688 -147.183594 C 82.289062 -149.324219 88.511719 -160.773438 87.125 -170.226562 C 86.035156 -177.675781 80.195312 -183.550781 69.308594 -181.957031 L 56.417969 -180.066406 L 67.421875 -238.746094 C 67.699219 -240.835938 67.734375 -242.597656 67.480469 -244.316406 C 65.925781 -254.917969 57.21875 -262.421875 44.613281 -260.570312 C 35.15625 -259.183594 28.101562 -251.417969 26.132812 -240.886719 L 12.582031 -173.636719 L 0.550781 -171.871094 C -14.921875 -169.605469 -20.082031 -158.898438 -18.738281 -149.730469 C -17.5625 -141.707031 -11.683594 -135.542969 -3.945312 -136.679688 L 5.507812 -138.066406 L -8.433594 -65.488281 L -8.476562 -65.777344 C -9.757812 -58.5625 -9.980469 -52.09375 -9.097656 -46.078125 C -4.8125 -16.855469 23.78125 -3.488281 53.289062 -7.816406 C 89.960938 -13.191406 116.625 -44.90625 126.066406 -94.285156 C 126.34375 -96.375 126.625 -98.464844 126.371094 -100.183594 C 125.109375 -108.777344 116.003906 -113.003906 107.121094 -111.703125 C 99.960938 -110.652344 92.527344 -105.464844 90.433594 -95.792969 Z M 90.433594 -95.792969 "/></g></g></g><g fill="#16896d" fill-opacity="0.7686"><g transform="translate(750.208647, 526.310135)"><g><path d="M 133.121094 -102.050781 C 125.390625 -66.96875 97.28125 -49.09375 72.929688 -45.519531 C 52.015625 -42.453125 37.363281 -50.550781 35.433594 -63.726562 C 35.054688 -66.304688 34.960938 -68.925781 35.6875 -71.960938 L 37.179688 -77.738281 C 46.246094 -73.800781 57.066406 -71.875 68.523438 -73.554688 C 94.597656 -77.378906 115.121094 -97.070312 119.074219 -123.992188 C 119.710938 -129.644531 119.769531 -135.214844 119.058594 -140.082031 C 115.066406 -167.300781 90.511719 -185.066406 58.136719 -180.316406 C 32.636719 -176.578125 9.898438 -158.023438 4.070312 -127.90625 L -5.648438 -76.433594 C -6.933594 -69.222656 -7.355469 -62.136719 -6.390625 -55.546875 C -1.390625 -21.453125 33.808594 -4.957031 75.636719 -11.089844 C 115.460938 -16.929688 157.871094 -43.050781 168.753906 -100.546875 C 169.277344 -102.964844 169.269531 -105.011719 169.019531 -106.730469 C 167.714844 -115.613281 158.980469 -119.304688 150.382812 -118.046875 C 142.363281 -116.871094 134.398438 -111.3125 133.121094 -102.050781 Z M 62.234375 -146.382812 C 70.257812 -147.5625 76.378906 -141.726562 77.597656 -133.417969 C 77.933594 -131.125 77.984375 -128.792969 77.460938 -126.375 C 75.980469 -116.5 67.890625 -111.800781 59.296875 -110.542969 C 53.851562 -109.742188 48.242188 -110.089844 43.894531 -111.792969 L 47.390625 -129.867188 C 49.238281 -139.210938 55.644531 -145.417969 62.234375 -146.382812 Z M 62.234375 -146.382812 "/></g></g></g><g clip-path="url(#914f723a5f)"><g fill="#ffde59" fill-opacity="1"><g transform="translate(222.38711, 594.775576)"><g><path d="M 138.09375 -108.050781 C 129.964844 -69.6875 101.613281 -51.484375 78.691406 -48.121094 C 56.058594 -44.804688 31.738281 -54.992188 28.964844 -73.902344 C 28.335938 -78.199219 28.191406 -83.152344 29.199219 -88.277344 L 50.550781 -194.128906 C 54.652344 -214.046875 65.980469 -218.636719 72.855469 -219.644531 C 79.445312 -220.609375 84.617188 -217.269531 85.878906 -208.675781 C 86.464844 -204.664062 86.078125 -199.339844 84.625 -193.273438 C 84.058594 -191.140625 84.066406 -189.09375 84.359375 -187.089844 C 85.832031 -177.0625 96.789062 -170.183594 107.964844 -171.820312 C 117.992188 -173.292969 128.15625 -181.804688 130.539062 -201.472656 C 131.453125 -209.214844 131.304688 -216.214844 130.421875 -222.230469 C 125.800781 -253.746094 98.1875 -268.429688 65.527344 -263.636719 C 44.613281 -260.570312 13.496094 -247.230469 4.613281 -202.027344 L -16.199219 -94.496094 C -18.046875 -85.152344 -18.339844 -75.160156 -17.078125 -66.5625 C -11.574219 -29.03125 27.21875 -3.992188 77.070312 -11.300781 C 116.890625 -17.140625 163.472656 -44.75 173 -103.511719 C 173.238281 -105.886719 173.230469 -107.933594 172.980469 -109.652344 C 171.507812 -119.679688 161.785156 -124.109375 152.90625 -122.804688 C 145.457031 -121.714844 138.839844 -116.9375 138.09375 -108.050781 Z M 138.09375 -108.050781 "/></g></g></g></g><g fill="#ffde59" fill-opacity="1"><g transform="translate(362.483634, 574.23124)"><g><path d="M 165.433594 -123.179688 C 157.414062 -122.003906 149.246094 -115.832031 147.402344 -104.4375 C 141.398438 -67.5625 125.070312 -53.167969 112.179688 -51.277344 C 107.308594 -50.5625 104.066406 -52.722656 103.394531 -57.304688 C 103.058594 -59.597656 103.210938 -62.546875 103.605469 -65.824219 L 122.082031 -163.355469 C 122.722656 -166.960938 122.835938 -170.195312 122.414062 -173.0625 C 120.566406 -185.667969 109.285156 -190.746094 98.6875 -189.191406 C 90.664062 -188.015625 82.902344 -183.070312 79.367188 -175.234375 C 72.804688 -178.078125 61 -180.738281 46.390625 -178.59375 C 27.480469 -175.820312 8.367188 -162.484375 3.863281 -139.289062 L -11.765625 -58.269531 C -12.726562 -52.859375 -13.117188 -47.535156 -12.359375 -42.378906 C -8.875 -18.601562 13.179688 -1.933594 38.390625 -5.628906 C 51.855469 -7.605469 64.726562 -15.636719 73.941406 -26.648438 C 85.039062 -14.8125 105.71875 -15.503906 114.3125 -16.761719 C 138.09375 -20.25 168.128906 -36.945312 179.660156 -86.050781 C 182.03125 -97.808594 184.132812 -105.433594 183.378906 -110.59375 C 181.949219 -120.332031 173.742188 -124.398438 165.433594 -123.179688 Z M 70.46875 -112.179688 L 62.976562 -67.476562 C 59.691406 -47.96875 49.433594 -42.074219 43.417969 -41.195312 C 37.117188 -40.269531 33.375 -43.816406 32.410156 -50.40625 C 31.863281 -54.132812 32.21875 -57.695312 32.699219 -60.402344 L 42.589844 -120.675781 C 45.472656 -138.949219 53.160156 -142.417969 57.742188 -143.089844 C 63.1875 -143.890625 70 -139.328125 71.429688 -129.585938 C 72.058594 -125.289062 71.710938 -119.679688 70.46875 -112.179688 Z M 70.46875 -112.179688 "/></g></g></g><g fill="#ffde59" fill-opacity="1"><g transform="translate(512.893988, 552.17444)"><g><path d="M 133.070312 -104.386719 C 126.300781 -74.710938 114.757812 -51.65625 102.722656 -49.890625 C 98.714844 -49.300781 96.160156 -52.734375 95.574219 -56.742188 C 95.320312 -58.460938 95.273438 -60.796875 95.796875 -63.214844 L 105.808594 -112.679688 C 106.6875 -118.660156 107.078125 -123.988281 106.363281 -128.855469 C 102.371094 -156.074219 66.3125 -162.492188 49.550781 -165.011719 C 50.074219 -167.429688 49.984375 -170.050781 49.648438 -172.339844 C 47.714844 -185.519531 34.332031 -194.972656 21.4375 -193.082031 C 4.535156 -190.601562 -3.308594 -174.234375 -0.914062 -157.902344 C 0.136719 -150.742188 3.808594 -143.667969 9.230469 -138.613281 L -3.40625 -79.105469 C -3.640625 -76.726562 -3.59375 -74.394531 -3.339844 -72.675781 C -1.953125 -63.222656 6.207031 -59.441406 14.230469 -60.617188 C 22.253906 -61.796875 29.890625 -67.597656 31.984375 -77.269531 L 41.722656 -122.597656 C 50.125 -121.195312 61.019531 -120.746094 62.449219 -111.003906 C 62.65625 -109.570312 62.625 -107.808594 62.34375 -105.71875 L 54.863281 -68.917969 C 53.539062 -61.992188 53.273438 -55.808594 54.113281 -50.078125 C 57.769531 -25.152344 79.933594 -11.722656 103.714844 -15.207031 C 134.941406 -19.789062 159.230469 -51.738281 169.03125 -102.636719 C 169.355469 -104.4375 169.429688 -105.914062 169.21875 -107.34375 C 167.960938 -115.941406 157.664062 -120.285156 148.496094 -118.941406 C 141.046875 -117.847656 134.390625 -113.359375 133.070312 -104.386719 Z M 133.070312 -104.386719 "/></g></g></g><g fill="#ffde59" fill-opacity="1"><g transform="translate(648.406569, 532.302313)"><g><path d="M 90.433594 -95.792969 C 83.59375 -62.597656 67.769531 -44.765625 51.15625 -42.328125 C 40.839844 -40.816406 33.613281 -46.195312 32.480469 -53.929688 C 32.183594 -55.933594 32.421875 -58.3125 32.699219 -60.402344 L 49.054688 -144.453125 L 67.679688 -147.183594 C 82.289062 -149.324219 88.511719 -160.773438 87.125 -170.226562 C 86.035156 -177.675781 80.195312 -183.550781 69.308594 -181.957031 L 56.417969 -180.066406 L 67.421875 -238.746094 C 67.699219 -240.835938 67.734375 -242.597656 67.480469 -244.316406 C 65.925781 -254.917969 57.21875 -262.421875 44.613281 -260.570312 C 35.15625 -259.183594 28.101562 -251.417969 26.132812 -240.886719 L 12.582031 -173.636719 L 0.550781 -171.871094 C -14.921875 -169.605469 -20.082031 -158.898438 -18.738281 -149.730469 C -17.5625 -141.707031 -11.683594 -135.542969 -3.945312 -136.679688 L 5.507812 -138.066406 L -8.433594 -65.488281 L -8.476562 -65.777344 C -9.757812 -58.5625 -9.980469 -52.09375 -9.097656 -46.078125 C -4.8125 -16.855469 23.78125 -3.488281 53.289062 -7.816406 C 89.960938 -13.191406 116.625 -44.90625 126.066406 -94.285156 C 126.34375 -96.375 126.625 -98.464844 126.371094 -100.183594 C 125.109375 -108.777344 116.003906 -113.003906 107.121094 -111.703125 C 99.960938 -110.652344 92.527344 -105.464844 90.433594 -95.792969 Z M 90.433594 -95.792969 "/></g></g></g><g fill="#ffde59" fill-opacity="1"><g transform="translate(742.090754, 518.564074)"><g><path d="M 133.121094 -102.050781 C 125.390625 -66.96875 97.28125 -49.09375 72.929688 -45.519531 C 52.015625 -42.453125 37.363281 -50.550781 35.433594 -63.726562 C 35.054688 -66.304688 34.960938 -68.925781 35.6875 -71.960938 L 37.179688 -77.738281 C 46.246094 -73.800781 57.066406 -71.875 68.523438 -73.554688 C 94.597656 -77.378906 115.121094 -97.070312 119.074219 -123.992188 C 119.710938 -129.644531 119.769531 -135.214844 119.058594 -140.082031 C 115.066406 -167.300781 90.511719 -185.066406 58.136719 -180.316406 C 32.636719 -176.578125 9.898438 -158.023438 4.070312 -127.90625 L -5.648438 -76.433594 C -6.933594 -69.222656 -7.355469 -62.136719 -6.390625 -55.546875 C -1.390625 -21.453125 33.808594 -4.957031 75.636719 -11.089844 C 115.460938 -16.929688 157.871094 -43.050781 168.753906 -100.546875 C 169.277344 -102.964844 169.269531 -105.011719 169.019531 -106.730469 C 167.714844 -115.613281 158.980469 -119.304688 150.382812 -118.046875 C 142.363281 -116.871094 134.398438 -111.3125 133.121094 -102.050781 Z M 62.234375 -146.382812 C 70.257812 -147.5625 76.378906 -141.726562 77.597656 -133.417969 C 77.933594 -131.125 77.984375 -128.792969 77.460938 -126.375 C 75.980469 -116.5 67.890625 -111.800781 59.296875 -110.542969 C 53.851562 -109.742188 48.242188 -110.089844 43.894531 -111.792969 L 47.390625 -129.867188 C 49.238281 -139.210938 55.644531 -145.417969 62.234375 -146.382812 Z M 62.234375 -146.382812 "/></g></g></g></svg>